<mxfile host="app.diagrams.net" modified="2024-05-18T10:49:19.949Z" agent="Mozilla/5.0 (Windows NT 10.0; Win64; x64) AppleWebKit/537.36 (KHTML, like Gecko) Chrome/123.0.0.0 Safari/537.36" etag="i9EKRMLqalngQRHa5o46" version="24.4.4" type="device">
  <diagram id="yPxyJZ8AM_hMuL3Unpa9" name="gitflow">
    <mxGraphModel dx="2478" dy="2112" grid="1" gridSize="10" guides="1" tooltips="1" connect="1" arrows="1" fold="1" page="1" pageScale="1" pageWidth="850" pageHeight="1100" math="0" shadow="0">
      <root>
        <mxCell id="0" />
        <mxCell id="1" parent="0" />
        <mxCell id="52" value="Z0" style="ellipse;whiteSpace=wrap;html=1;aspect=fixed;fontSize=10;fillColor=#e1d5e7;strokeColor=#9673a6;" parent="1" vertex="1">
          <mxGeometry x="-425" y="250" width="58" height="58" as="geometry" />
        </mxCell>
        <mxCell id="X5qCzSRsX2g8T83lWoOT-183" value="Pattern = &quot;EISBEIN&quot;" style="text;html=1;align=center;verticalAlign=middle;whiteSpace=wrap;rounded=0;" parent="1" vertex="1">
          <mxGeometry x="-265" y="-160" width="130" height="30" as="geometry" />
        </mxCell>
        <mxCell id="X5qCzSRsX2g8T83lWoOT-184" value="Alphabet A = &quot;B, E, I, N, S, ...&quot;" style="text;html=1;align=center;verticalAlign=middle;whiteSpace=wrap;rounded=0;" parent="1" vertex="1">
          <mxGeometry x="-125" y="-160" width="175" height="30" as="geometry" />
        </mxCell>
        <mxCell id="X5qCzSRsX2g8T83lWoOT-196" value="&lt;div&gt;&lt;u&gt;Zustandslegende&lt;/u&gt;&lt;/div&gt;&lt;div&gt;&lt;ul&gt;&lt;li&gt;Z0 = nichts&lt;/li&gt;&lt;li&gt;Z1 = &quot;E&quot;&lt;/li&gt;&lt;li&gt;Z2 = &quot;EI&quot;&lt;/li&gt;&lt;li&gt;Z3 = &quot;EIS&quot;&lt;/li&gt;&lt;li&gt;Z4 = &quot;EISB&quot;&lt;/li&gt;&lt;li&gt;Z5 = &quot;EISBE&quot;&lt;/li&gt;&lt;li&gt;Z6 = &quot;EISBEI&quot;&lt;/li&gt;&lt;li&gt;Z7 = &quot;EISBEIN&quot;&lt;/li&gt;&lt;/ul&gt;&lt;/div&gt;" style="text;html=1;align=left;verticalAlign=middle;whiteSpace=wrap;rounded=0;" parent="1" vertex="1">
          <mxGeometry x="-255" y="-130" width="155" height="160" as="geometry" />
        </mxCell>
        <mxCell id="AvgogbDg6BR7GDdZJ443-75" value="Z1" style="ellipse;whiteSpace=wrap;html=1;aspect=fixed;fontSize=10;fillColor=#e1d5e7;strokeColor=#9673a6;" parent="1" vertex="1">
          <mxGeometry x="-79" y="250" width="58" height="58" as="geometry" />
        </mxCell>
        <mxCell id="AvgogbDg6BR7GDdZJ443-76" value="Z2" style="ellipse;whiteSpace=wrap;html=1;aspect=fixed;fontSize=10;fillColor=#e1d5e7;strokeColor=#9673a6;" parent="1" vertex="1">
          <mxGeometry x="270" y="250" width="58" height="58" as="geometry" />
        </mxCell>
        <mxCell id="AvgogbDg6BR7GDdZJ443-77" value="Z3" style="ellipse;whiteSpace=wrap;html=1;aspect=fixed;fontSize=10;fillColor=#e1d5e7;strokeColor=#9673a6;" parent="1" vertex="1">
          <mxGeometry x="630" y="250" width="58" height="58" as="geometry" />
        </mxCell>
        <mxCell id="AvgogbDg6BR7GDdZJ443-78" value="Z4" style="ellipse;whiteSpace=wrap;html=1;aspect=fixed;fontSize=10;fillColor=#e1d5e7;strokeColor=#9673a6;" parent="1" vertex="1">
          <mxGeometry x="980" y="250" width="58" height="58" as="geometry" />
        </mxCell>
        <mxCell id="AvgogbDg6BR7GDdZJ443-79" value="Z5" style="ellipse;whiteSpace=wrap;html=1;aspect=fixed;fontSize=10;fillColor=#e1d5e7;strokeColor=#9673a6;" parent="1" vertex="1">
          <mxGeometry x="1320" y="250" width="58" height="58" as="geometry" />
        </mxCell>
        <mxCell id="AvgogbDg6BR7GDdZJ443-80" value="Z6" style="ellipse;whiteSpace=wrap;html=1;aspect=fixed;fontSize=10;fillColor=#e1d5e7;strokeColor=#9673a6;" parent="1" vertex="1">
          <mxGeometry x="1690" y="250" width="58" height="58" as="geometry" />
        </mxCell>
        <mxCell id="AvgogbDg6BR7GDdZJ443-81" value="Z7" style="ellipse;whiteSpace=wrap;html=1;aspect=fixed;fontSize=10;fillColor=#e1d5e7;strokeColor=#9673a6;" parent="1" vertex="1">
          <mxGeometry x="2080" y="250" width="58" height="58" as="geometry" />
        </mxCell>
        <mxCell id="zFFiw0v59cG35uwfprwf-52" value="" style="endArrow=classic;html=1;rounded=0;exitX=0;exitY=0;exitDx=0;exitDy=0;entryX=0.801;entryY=0.017;entryDx=0;entryDy=0;entryPerimeter=0;curved=1;" edge="1" parent="1" source="52" target="52">
          <mxGeometry width="50" height="50" relative="1" as="geometry">
            <mxPoint x="-440" y="160" as="sourcePoint" />
            <mxPoint x="-380" y="190" as="targetPoint" />
            <Array as="points">
              <mxPoint x="-410" y="200" />
            </Array>
          </mxGeometry>
        </mxCell>
        <mxCell id="zFFiw0v59cG35uwfprwf-55" value="!E" style="text;html=1;align=center;verticalAlign=middle;whiteSpace=wrap;rounded=0;fontSize=21;" vertex="1" parent="1">
          <mxGeometry x="-430" y="190" width="60" height="30" as="geometry" />
        </mxCell>
        <mxCell id="zFFiw0v59cG35uwfprwf-58" value="" style="endArrow=classic;html=1;rounded=0;exitX=1;exitY=0.5;exitDx=0;exitDy=0;entryX=0;entryY=0.5;entryDx=0;entryDy=0;curved=1;" edge="1" parent="1" source="52" target="AvgogbDg6BR7GDdZJ443-75">
          <mxGeometry width="50" height="50" relative="1" as="geometry">
            <mxPoint x="-270.49390334559007" y="308" as="sourcePoint" />
            <mxPoint x="-232.49390334559007" y="301" as="targetPoint" />
            <Array as="points">
              <mxPoint x="-263.49390334559007" y="250" />
            </Array>
          </mxGeometry>
        </mxCell>
        <mxCell id="zFFiw0v59cG35uwfprwf-61" value="E" style="text;html=1;align=center;verticalAlign=middle;whiteSpace=wrap;rounded=0;fontSize=21;" vertex="1" parent="1">
          <mxGeometry x="-265" y="227" width="60" height="30" as="geometry" />
        </mxCell>
        <mxCell id="zFFiw0v59cG35uwfprwf-62" value="" style="endArrow=classic;html=1;rounded=0;exitX=1;exitY=0.5;exitDx=0;exitDy=0;entryX=0;entryY=0.5;entryDx=0;entryDy=0;curved=1;" edge="1" parent="1" source="AvgogbDg6BR7GDdZJ443-75" target="AvgogbDg6BR7GDdZJ443-76">
          <mxGeometry width="50" height="50" relative="1" as="geometry">
            <mxPoint x="59.50609665440993" y="278" as="sourcePoint" />
            <mxPoint x="97.50609665440993" y="271" as="targetPoint" />
            <Array as="points">
              <mxPoint x="67" y="240" />
            </Array>
          </mxGeometry>
        </mxCell>
        <mxCell id="zFFiw0v59cG35uwfprwf-63" value="" style="endArrow=classic;html=1;rounded=0;exitX=1;exitY=0.5;exitDx=0;exitDy=0;entryX=0;entryY=0.5;entryDx=0;entryDy=0;curved=1;" edge="1" parent="1" source="AvgogbDg6BR7GDdZJ443-76" target="AvgogbDg6BR7GDdZJ443-77">
          <mxGeometry width="50" height="50" relative="1" as="geometry">
            <mxPoint x="439.50609665440993" y="298" as="sourcePoint" />
            <mxPoint x="477.50609665440993" y="291" as="targetPoint" />
            <Array as="points">
              <mxPoint x="446.50609665440993" y="240" />
            </Array>
          </mxGeometry>
        </mxCell>
        <mxCell id="zFFiw0v59cG35uwfprwf-64" value="" style="endArrow=classic;html=1;rounded=0;exitX=1;exitY=0.5;exitDx=0;exitDy=0;entryX=0;entryY=0.5;entryDx=0;entryDy=0;curved=1;" edge="1" parent="1" target="AvgogbDg6BR7GDdZJ443-78">
          <mxGeometry width="50" height="50" relative="1" as="geometry">
            <mxPoint x="688" y="279" as="sourcePoint" />
            <mxPoint x="990" y="279" as="targetPoint" />
            <Array as="points">
              <mxPoint x="806.5060966544099" y="240" />
            </Array>
          </mxGeometry>
        </mxCell>
        <mxCell id="zFFiw0v59cG35uwfprwf-65" value="" style="endArrow=classic;html=1;rounded=0;exitX=1;exitY=0.5;exitDx=0;exitDy=0;curved=1;" edge="1" parent="1" target="AvgogbDg6BR7GDdZJ443-79">
          <mxGeometry width="50" height="50" relative="1" as="geometry">
            <mxPoint x="1038" y="279" as="sourcePoint" />
            <mxPoint x="1310" y="280" as="targetPoint" />
            <Array as="points">
              <mxPoint x="1156.50609665441" y="240" />
            </Array>
          </mxGeometry>
        </mxCell>
        <mxCell id="zFFiw0v59cG35uwfprwf-66" value="" style="endArrow=classic;html=1;rounded=0;exitX=1;exitY=0.5;exitDx=0;exitDy=0;curved=1;entryX=0;entryY=0.5;entryDx=0;entryDy=0;" edge="1" parent="1" target="AvgogbDg6BR7GDdZJ443-80">
          <mxGeometry width="50" height="50" relative="1" as="geometry">
            <mxPoint x="1378" y="279" as="sourcePoint" />
            <mxPoint x="1661" y="273" as="targetPoint" />
            <Array as="points">
              <mxPoint x="1496.50609665441" y="240" />
            </Array>
          </mxGeometry>
        </mxCell>
        <mxCell id="zFFiw0v59cG35uwfprwf-67" value="" style="endArrow=classic;html=1;rounded=0;exitX=1;exitY=0.5;exitDx=0;exitDy=0;curved=1;entryX=0;entryY=0.5;entryDx=0;entryDy=0;" edge="1" parent="1" target="AvgogbDg6BR7GDdZJ443-81">
          <mxGeometry width="50" height="50" relative="1" as="geometry">
            <mxPoint x="1748" y="279" as="sourcePoint" />
            <mxPoint x="2060" y="279" as="targetPoint" />
            <Array as="points">
              <mxPoint x="1866.50609665441" y="240" />
            </Array>
          </mxGeometry>
        </mxCell>
        <mxCell id="zFFiw0v59cG35uwfprwf-68" value="I" style="text;html=1;align=center;verticalAlign=middle;whiteSpace=wrap;rounded=0;fontSize=21;" vertex="1" parent="1">
          <mxGeometry x="80" y="220" width="60" height="30" as="geometry" />
        </mxCell>
        <mxCell id="zFFiw0v59cG35uwfprwf-69" value="S" style="text;html=1;align=center;verticalAlign=middle;whiteSpace=wrap;rounded=0;fontSize=21;" vertex="1" parent="1">
          <mxGeometry x="430" y="220" width="60" height="30" as="geometry" />
        </mxCell>
        <mxCell id="zFFiw0v59cG35uwfprwf-70" value="B" style="text;html=1;align=center;verticalAlign=middle;whiteSpace=wrap;rounded=0;fontSize=21;" vertex="1" parent="1">
          <mxGeometry x="800" y="219" width="60" height="30" as="geometry" />
        </mxCell>
        <mxCell id="zFFiw0v59cG35uwfprwf-72" value="I" style="text;html=1;align=center;verticalAlign=middle;whiteSpace=wrap;rounded=0;fontSize=21;" vertex="1" parent="1">
          <mxGeometry x="1500" y="219" width="60" height="30" as="geometry" />
        </mxCell>
        <mxCell id="zFFiw0v59cG35uwfprwf-73" value="E" style="text;html=1;align=center;verticalAlign=middle;whiteSpace=wrap;rounded=0;fontSize=21;" vertex="1" parent="1">
          <mxGeometry x="1153" y="225" width="60" height="30" as="geometry" />
        </mxCell>
        <mxCell id="zFFiw0v59cG35uwfprwf-74" value="N" style="text;html=1;align=center;verticalAlign=middle;whiteSpace=wrap;rounded=0;fontSize=21;" vertex="1" parent="1">
          <mxGeometry x="1870" y="216" width="60" height="30" as="geometry" />
        </mxCell>
        <mxCell id="zFFiw0v59cG35uwfprwf-75" value="" style="endArrow=classic;html=1;rounded=0;exitX=0.5;exitY=1;exitDx=0;exitDy=0;entryX=0.5;entryY=1;entryDx=0;entryDy=0;curved=1;" edge="1" parent="1" source="AvgogbDg6BR7GDdZJ443-75" target="52">
          <mxGeometry width="50" height="50" relative="1" as="geometry">
            <mxPoint x="-180.49390334559007" y="488" as="sourcePoint" />
            <mxPoint x="-142.49390334559007" y="481" as="targetPoint" />
            <Array as="points">
              <mxPoint x="-190" y="400" />
            </Array>
          </mxGeometry>
        </mxCell>
        <mxCell id="zFFiw0v59cG35uwfprwf-76" value="!I" style="text;html=1;align=center;verticalAlign=middle;whiteSpace=wrap;rounded=0;fontSize=21;" vertex="1" parent="1">
          <mxGeometry x="-255" y="320" width="60" height="30" as="geometry" />
        </mxCell>
        <mxCell id="zFFiw0v59cG35uwfprwf-77" value="" style="endArrow=classic;html=1;rounded=0;exitX=0.5;exitY=1;exitDx=0;exitDy=0;curved=1;" edge="1" parent="1" source="AvgogbDg6BR7GDdZJ443-76">
          <mxGeometry width="50" height="50" relative="1" as="geometry">
            <mxPoint x="296" y="360" as="sourcePoint" />
            <mxPoint x="-390" y="310" as="targetPoint" />
            <Array as="points">
              <mxPoint x="50" y="480" />
            </Array>
          </mxGeometry>
        </mxCell>
        <mxCell id="zFFiw0v59cG35uwfprwf-78" value="!S" style="text;html=1;align=center;verticalAlign=middle;whiteSpace=wrap;rounded=0;fontSize=21;" vertex="1" parent="1">
          <mxGeometry x="-30" y="360" width="60" height="30" as="geometry" />
        </mxCell>
        <mxCell id="zFFiw0v59cG35uwfprwf-79" value="" style="endArrow=classic;html=1;rounded=0;exitX=0.5;exitY=1;exitDx=0;exitDy=0;curved=1;" edge="1" parent="1" source="AvgogbDg6BR7GDdZJ443-77">
          <mxGeometry width="50" height="50" relative="1" as="geometry">
            <mxPoint x="419.50609665440993" y="428" as="sourcePoint" />
            <mxPoint x="-390" y="310" as="targetPoint" />
            <Array as="points">
              <mxPoint x="426.50609665440993" y="370" />
            </Array>
          </mxGeometry>
        </mxCell>
        <mxCell id="zFFiw0v59cG35uwfprwf-81" value="!B" style="text;html=1;align=center;verticalAlign=middle;whiteSpace=wrap;rounded=0;fontSize=21;" vertex="1" parent="1">
          <mxGeometry x="440" y="300" width="60" height="30" as="geometry" />
        </mxCell>
        <mxCell id="zFFiw0v59cG35uwfprwf-82" value="" style="endArrow=classic;html=1;rounded=0;exitX=0.5;exitY=1;exitDx=0;exitDy=0;curved=1;" edge="1" parent="1" source="AvgogbDg6BR7GDdZJ443-78">
          <mxGeometry width="50" height="50" relative="1" as="geometry">
            <mxPoint x="759.5060966544099" y="478" as="sourcePoint" />
            <mxPoint x="-390" y="308" as="targetPoint" />
            <Array as="points">
              <mxPoint x="780" y="600" />
            </Array>
          </mxGeometry>
        </mxCell>
        <mxCell id="zFFiw0v59cG35uwfprwf-83" value="!E" style="text;html=1;align=center;verticalAlign=middle;whiteSpace=wrap;rounded=0;fontSize=21;" vertex="1" parent="1">
          <mxGeometry x="660" y="400" width="60" height="30" as="geometry" />
        </mxCell>
        <mxCell id="zFFiw0v59cG35uwfprwf-84" value="" style="endArrow=classic;html=1;rounded=0;exitX=0.5;exitY=1;exitDx=0;exitDy=0;curved=1;entryX=1;entryY=1;entryDx=0;entryDy=0;" edge="1" parent="1" source="AvgogbDg6BR7GDdZJ443-79" target="AvgogbDg6BR7GDdZJ443-75">
          <mxGeometry width="50" height="50" relative="1" as="geometry">
            <mxPoint x="1239.50609665441" y="488" as="sourcePoint" />
            <mxPoint x="450" y="560" as="targetPoint" />
            <Array as="points">
              <mxPoint x="1246.50609665441" y="430" />
            </Array>
          </mxGeometry>
        </mxCell>
        <mxCell id="zFFiw0v59cG35uwfprwf-85" value="!I" style="text;html=1;align=center;verticalAlign=middle;whiteSpace=wrap;rounded=0;fontSize=21;" vertex="1" parent="1">
          <mxGeometry x="1140" y="320" width="60" height="30" as="geometry" />
        </mxCell>
        <mxCell id="zFFiw0v59cG35uwfprwf-88" value="" style="endArrow=classic;html=1;rounded=0;exitX=0.5;exitY=1;exitDx=0;exitDy=0;curved=1;entryX=1;entryY=1;entryDx=0;entryDy=0;" edge="1" parent="1" source="AvgogbDg6BR7GDdZJ443-80" target="AvgogbDg6BR7GDdZJ443-76">
          <mxGeometry width="50" height="50" relative="1" as="geometry">
            <mxPoint x="1489.50609665441" y="558" as="sourcePoint" />
            <mxPoint x="840" y="600" as="targetPoint" />
            <Array as="points">
              <mxPoint x="1497" y="560" />
            </Array>
          </mxGeometry>
        </mxCell>
        <mxCell id="zFFiw0v59cG35uwfprwf-89" value="!N" style="text;html=1;align=center;verticalAlign=middle;whiteSpace=wrap;rounded=0;fontSize=21;" vertex="1" parent="1">
          <mxGeometry x="1400" y="390" width="60" height="30" as="geometry" />
        </mxCell>
      </root>
    </mxGraphModel>
  </diagram>
</mxfile>
